<svg height="512" viewBox="0 0 58 55" width="512" xmlns="http://www.w3.org/2000/svg"><g id="Page-1" fill="none" fill-rule="evenodd"><g id="029---Book-Shelf" fill-rule="nonzero"><rect id="Rectangle-path" fill="#a56a43" height="6" rx="2" width="58" y="43"/><path id="Shape" d="m4 49h8v4c0 1.1045695-.8954305 2-2 2h-4c-1.1045695 0-2-.8954305-2-2z" fill="#805333"/><path id="Shape" d="m46 49h8v4c0 1.1045695-.8954305 2-2 2h-4c-1.1045695 0-2-.8954305-2-2z" fill="#805333"/><path id="Shape" d="m28 0h10c1.1045695 0 2 .8954305 2 2v41h-14v-41c0-1.1045695.8954305-2 2-2z" fill="#f29c1f"/><path id="Rectangle-path" d="m26 6h14v31h-14z" fill="#f0c419"/><path id="Shape" d="m20 8h4c1.1045695 0 2 .8954305 2 2v33h-8v-33c0-1.1045695.8954305-2 2-2z" fill="#3d324c"/><path id="Rectangle-path" d="m18 13h8v25h-8z" fill="#955ba5"/><path id="Shape" d="m42 11h3c1.1045695 0 2 .8954305 2 2v30h-7v-30c0-1.1045695.8954305-2 2-2z" fill="#3d324c"/><path id="Rectangle-path" d="m40 20h7v14h-7z" fill="#955ba5"/><path id="Shape" d="m49 5h3c1.1045695 0 2 .8954305 2 2v36h-7v-36c0-1.1045695.8954305-2 2-2z" fill="#f29c1f"/><path id="Rectangle-path" d="m47 16h7v16h-7z" fill="#f0c419"/><rect id="Rectangle-path" fill="#f29c1f" height="38" rx="2" transform="matrix(-.966 -.259 .259 -.966 13.695 50.184)" width="7" x="6.651" y="5.19"/><path id="Rectangle-path" d="m6.654 16.185h7.001v16.002h-7.001z" fill="#f0c419" transform="matrix(-.966 -.259 .259 -.966 13.699 50.177)"/><g fill="#3f5c6c"><path id="Shape" d="m36 12h-6c-.5522847 0-1-.4477153-1-1s.4477153-1 1-1h6c.5522847 0 1 .4477153 1 1s-.4477153 1-1 1z"/><path id="Shape" d="m36 16h-6c-.5522847 0-1-.4477153-1-1s.4477153-1 1-1h6c.5522847 0 1 .4477153 1 1s-.4477153 1-1 1z"/></g></g></g></svg>